
        <svg xmlns="http://www.w3.org/2000/svg" xmlns:xlink="http://www.w3.org/1999/xlink" version="1.1" width="3153.846153846154"
        height="2230.769230769231" viewBox="0 0 3153.846153846154 2230.769230769231">
		<defs>
            <style>
            .cls-1, .cls-2 {
                fill: #0080ff;
            }

            .cls-1, .cls-3, .cls-6, .cls-7 {
                fill-rule: evenodd;
            }

            .cls-3 {
                fill: #097ef1;
            }

            .cls-4 {
                fill: #3299ff;
            }

            .cls-5 {
                fill: #fff;
            }

            .cls-6 {
                fill: none;
                stroke: #93b4d4;
                stroke-width: 0.491px;
            }

            .cls-7 {
                fill: #ff3f3f;
            }

            .cls-8 {
                fill: #263a5b;
            }

            .cls-9 {
                fill: #18d26b;
            }
            </style>
        </defs>
			<g transform="scale(7.6923076923076925) translate(10, 10)">
				<defs id="SvgjsDefs3072"></defs><g id="SvgjsG3073" featureKey="rootContainer" transform="matrix(1,0,0,1,0,0)" fill="#063173"><rect xmlns="http://www.w3.org/2000/svg" width="390" height="270" rx="10" ry="10"></rect></g><g id="SvgjsG3074" featureKey="symbolFeature-0" transform="matrix(1.555842153337199,0,0,1.555842153337199,117.39599759867197,-8.099033711772979)" fill="#ffffff"><g xmlns="http://www.w3.org/2000/svg" transform="translate(0.000000,981.000000) scale(0.100000,-0.100000)"><path d="M425.3,9628.3c-4.5-1.4-8.9-4.6-11.5-8.4c-4.4-6.5-4.4-6.4-4.4-69.3v-57.4h-71c-79.3,0-74.9,0.3-81.3-5.3   c-1.9-1.7-4.3-4.9-5.5-7.3l-2.1-4.3l-0.2-51.3l-0.2-51.4h-89.3c-98,0-94.6,0.2-101.3-4.4c-3.8-2.7-7-7-8.4-11.8   c-1.7-5.5-1.6-301.4,0.1-307.1c1.4-4.6,6.6-10.8,11.2-13.2l3.1-1.7l92.2-0.2l92.3-0.2l0.3-11.5c0.2-9.9,0.5-12,2-15.3   c2.2-4.9,7.6-10,12.5-12c3.7-1.4,8.9-1.4,235.5-1.4H731l4.3,2.1c2.4,1.2,5.6,3.6,7.3,5.5c4.5,5.1,5.3,8.5,5.3,21.5v11.1h91.3   c102.5,0,95.2-0.4,102,5.7c2.2,2,4.4,4.9,5.4,7.2l1.8,4l0.2,150.1c0.2,170.6,0.8,156.3-5.9,163.6c-2.3,2.5-5.2,4.7-7.6,5.8l-4,1.8   l-91.6,0.2l-91.6,0.2v51c0,58.5,0.3,55.7-6.3,62.3c-6.8,6.8-1,6.3-84.9,6.3h-73.6v59.7v59.6l-1.8,3.8c-2.3,5-8.5,10.5-13.5,12   c-3.3,1-13.2,1.1-71.6,1.1C441.6,9629.4,427.9,9629.2,425.3,9628.3z M563.6,9610.7c1.4-0.8,1.4-2.3,1.4-68.1   c0-65.8,0-67.3-1.4-68.1c-1-0.5-23.5-0.8-67.7-0.8h-66.2l-1.1,1.7c-1.1,1.5-1.2,9.1-1.2,67.3c0,64.7,0,65.7,1.5,67.2   c1.5,1.5,2.5,1.5,67.4,1.5C540.2,9611.4,562.6,9611.2,563.6,9610.7z M410.7,9471.6c1.4-5.3,5.7-10.6,11.1-13.3l4.4-2.3l69.4-0.2   c68.5-0.2,69.4-0.2,73.5,1.4c2.3,0.9,5.6,2.9,7.3,4.6c3.1,3,6.8,9.6,6.8,12.2c0,1.2,4,1.3,72.5,1.3c55.4,0,72.7-0.2,73.4-0.9   c0.7-0.7,0.9-52.9,0.9-230.2v-229.3l-1.7-1.1c-1.5-1.1-7.7-1.2-53-1.2h-51.4v78.6v78.6l-125.8-0.2l-125.9-0.2l-0.2-78.4l-0.2-78.5   h-50.8c-49.8,0-50.8,0-52.3,1.5s-1.5,2.5-1.5,229.7c0,205.3,0.2,228.4,1.2,229.9l1.1,1.7h70.2h70.1L410.7,9471.6z M249,9204.4   v-151.2h-89.8c-80.7,0-90,0.2-91,1.2c-1.1,1.1-1.2,15.7-1.2,149.7c0,147.5,0,148.5,1.5,150s2.5,1.5,91,1.5H249V9204.4z    M929.2,9354.1c1.5-1.5,1.5-2.5,1.5-149.9c0-136.9-0.1-148.5-1.3-149.7c-1.1-1.3-5-1.4-91.4-1.4h-90.1v151.2v151.2h89.9   C926.7,9355.6,927.7,9355.6,929.2,9354.1z M492.1,9085.5v-73h-54.5H383v73v73h54.5h54.5V9085.5z M612.5,9085.5v-73h-54.5h-54.5v73   v73h54.5h54.5V9085.5z"></path><path d="M481.3,9593.7c-0.3-0.3-0.5-8-0.5-17v-16.4h-16.6h-16.6v-17.7v-17.7h16.6h16.6V9508V9491l17.9,0.2l17.8,0.2l0.2,16.8   l0.2,16.7h15.4h15.4v17.7v17.7h-15.4h-15.4l-0.2,16.8l-0.2,16.7l-17.4,0.2C489.6,9594,481.6,9593.9,481.3,9593.7z"></path><path d="M307,9387.9V9339h44.4h44.4v48.9v48.9h-44.4H307V9387.9z M385.2,9387.9v-37.6h-33.5h-33.5v37.6v37.6h33.5h33.5V9387.9z"></path><path d="M450.7,9387.9V9339h44.8h44.8l-0.2,48.8l-0.2,48.7l-44.5,0.2l-44.6,0.2V9387.9z M528.9,9387.9v-37.6h-33.5H462v37.6v37.6   h33.5h33.5V9387.9z"></path><path d="M594.9,9436.3c-0.3-0.2-0.5-22.3-0.5-48.9V9339h44.8h44.8v48.9v48.9h-44.2C615.3,9436.9,595.1,9436.6,594.9,9436.3z    M672.6,9387.9v-37.6h-33.5h-33.5v37.6v37.6h33.5h33.5V9387.9z"></path><path d="M307,9267.6v-48.9h44.4h44.4v48.9v48.9h-44.4H307V9267.6z M385.2,9288c0-9.5-0.2-26.4-0.5-37.6l-0.5-20.5h-33h-33v37.6   v37.6h33.5h33.5V9288z"></path><path d="M450.7,9267.6v-48.9h44.8h44.8v48.9v48.9h-44.8h-44.8V9267.6z M528.9,9267.6v-37.6h-33.5H462v37.6v37.6h33.5h33.5V9267.6z"></path><path d="M594.4,9267.6v-48.9h44.8h44.8v48.9v48.9h-44.8h-44.8V9267.6z M672.6,9267.6v-37.6h-33.5h-33.5v37.6v37.6h33.5h33.5V9267.6   z"></path><path d="M113.6,9267.6v-48.9h44.8h44.8v48.9v48.9h-44.8h-44.8V9267.6z M191.9,9267.6v-37.6h-33.5h-33.5v37.6v37.6h33.5h33.5V9267.6   z"></path><path d="M113.6,9147.2v-48.9h44.8h44.8v48.9v48.9h-44.8h-44.8V9147.2z M191.9,9147.2v-37.6h-33.5h-33.5v37.6v37.6h33.5h33.5V9147.2   z"></path><path d="M793,9267.6v-48.9h44.4h44.4v48.9v48.9h-44.4H793V9267.6z M870.5,9267.6v-37.6h-33.1h-33.1v37.6v37.6h33.1h33.1V9267.6z"></path><path d="M793,9147.2v-48.9h44.4h44.4v48.9v48.9h-44.4H793V9147.2z M870.5,9147.2v-37.6h-33.1h-33.1v37.6v37.6h33.1h33.1V9147.2z"></path></g></g><g id="SvgjsG3075" featureKey="nameFeature-0" transform="matrix(1.8978987466848458,0,0,1.8978987466848458,13.068114585752669,116.64844564942274)" fill="#ffffff"><path d="M9.5117 34.8242 l8.8477 0 l0 5.1758 l-14.707 0 l0 -28.223 l5.8594 0 l0 23.047 z M26.67964375 40 l0 -28.223 l5.8594 0 l0 28.223 l-5.8594 0 z M60.31253125 16.934 l-10.742 0 l0 6.4063 l9.2773 0 l0 5.0977 l-9.2773 0 l0 11.563 l-5.8984 0 l0 -28.223 l16.641 0 l0 5.1563 z M85.5278125 16.934 l-10.469 0 l0 6.4063 l9.2773 0 l0 5.0977 l-9.2773 0 l0 6.3867 l10.469 0 l0 5.1758 l-16.367 0 l0 -28.223 l16.367 0 l0 5.1563 z M101.2695125 34.8242 l8.8477 0 l0 5.1758 l-14.707 0 l0 -28.223 l5.8594 0 l0 23.047 z M118.43745625 40 l0 -28.223 l5.8594 0 l0 28.223 l-5.8594 0 z M154.70734375 11.777000000000001 l5.8398 0 l0 28.223 l-6.7773 0 l-12.5 -20.176 l0 20.176 l-5.8398 0 l0 -28.223 l6.6992 0 l12.578 20.059 l0 -20.059 z M188.066875 16.934 l-10.469 0 l0 6.4063 l9.2773 0 l0 5.0977 l-9.2773 0 l0 6.3867 l10.469 0 l0 5.1758 l-16.367 0 l0 -28.223 l16.367 0 l0 5.1563 z"></path></g><g id="SvgjsG3076" featureKey="nameFeature-1" transform="matrix(0.745825913041386,0,0,0.745825913041386,17.276542182429118,194.50755766286247)" fill="#ffffff"><path d="M21.445 11.777000000000001 l5.8594 0 l0 28.223 l-5.8594 0 l0 -11.602 l-11.934 0 l0 11.602 l-5.8594 0 l0 -28.223 l5.8594 0 l0 11.523 l11.934 0 l0 -11.523 z M54.824687499999996 16.934 l-10.469 0 l0 6.4063 l9.2773 0 l0 5.0977 l-9.2773 0 l0 6.3867 l10.469 0 l0 5.1758 l-16.367 0 l0 -28.223 l16.367 0 l0 5.1563 z M83.5936875 40 l-2.0508 -5.8203 l-11.855 0 l-2.0508 5.8203 l-5.9961 0 l10.391 -28.223 l7.168 0 l10.391 28.223 l-5.9961 0 z M71.4066875 29.277 l8.418 0 l-4.1992 -11.973 z M103.5351375 34.8242 l8.8477 0 l0 5.1758 l-14.707 0 l0 -28.223 l5.8594 0 l0 23.047 z M137.07078125 11.777000000000001 l0 5.1563 l-6.6992 0 l0 23.066 l-5.8008 0 l0 -23.066 l-6.7383 0 l0 -5.1563 l19.238 0 z M163.14421875 11.777000000000001 l5.8594 0 l0 28.223 l-5.8594 0 l0 -11.602 l-11.934 0 l0 11.602 l-5.8594 0 l0 -28.223 l5.8594 0 l0 11.523 l11.934 0 l0 -11.523 z M192.65590625 40.39063 c-8.3008 0 -14.434 -5.6445 -14.434 -14.512 s6.1328 -14.492 14.434 -14.492 c6.2891 0 11.328 3.2227 13.34 8.5742 l-5.4688 1.9922 c-1.25 -3.2813 -4.2383 -5.1758 -7.8711 -5.1758 c-4.8633 0 -8.5938 3.3984 -8.5938 9.1016 s3.7305 9.1211 8.5938 9.1211 c3.6328 0 6.6211 -1.9141 7.8711 -5.1953 l5.4688 1.9922 c-2.0117 5.3516 -7.0508 8.5938 -13.34 8.5938 z M233.53509375 40 l-2.0508 -5.8203 l-11.855 0 l-2.0508 5.8203 l-5.9961 0 l10.391 -28.223 l7.168 0 l10.391 28.223 l-5.9961 0 z M221.34809375 29.277 l8.418 0 l-4.1992 -11.973 z M262.51984375 40 l-7.3438 -12.422 l-1.6992 0 l0 12.422 l-5.8594 0 l0 -28.223 l10.234 0 c6.3867 0 9.082 3.7695 9.082 8.4375 c0 3.7891 -2.1484 6.25 -5.9766 7.0703 l8.4961 12.715 l-6.9336 0 z M253.47654375 16.641 l0 6.7383 l3.457 0 c3.125 0 4.3945 -1.3281 4.3945 -3.3594 c0 -2.0117 -1.2695 -3.3789 -4.3945 -3.3789 l-3.457 0 z M293.9653125 16.934 l-10.469 0 l0 6.4063 l9.2773 0 l0 5.0977 l-9.2773 0 l0 6.3867 l10.469 0 l0 5.1758 l-16.367 0 l0 -28.223 l16.367 0 l0 5.1563 z M330.29259375 40.39063 c-8.1445 0 -14.141 -5.625 -14.141 -14.434 c0 -8.9258 6.1328 -14.57 14.434 -14.57 c5.4492 0 9.9609 2.4023 12.422 6.6406 l-5.1367 2.7344 c-1.4844 -2.8906 -4.1406 -4.2773 -7.2852 -4.2773 c-4.8828 0 -8.5547 3.3594 -8.5547 9.3359 c0 5.7617 3.4375 9.4727 8.7695 9.4727 c3.6133 0 6.9336 -1.7969 7.7344 -5.918 l-7.7148 0 l0 -4.707 l13.262 0 l0 15.332 l-4.6094 0 l0 -3.9063 c-1.8164 2.6758 -4.8633 4.2969 -9.1797 4.2969 z M368.9065625 40 l-7.3438 -12.422 l-1.6992 0 l0 12.422 l-5.8594 0 l0 -28.223 l10.234 0 c6.3867 0 9.082 3.7695 9.082 8.4375 c0 3.7891 -2.1484 6.25 -5.9766 7.0703 l8.4961 12.715 l-6.9336 0 z M359.8632625 16.641 l0 6.7383 l3.457 0 c3.125 0 4.3945 -1.3281 4.3945 -3.3594 c0 -2.0117 -1.2695 -3.3789 -4.3945 -3.3789 l-3.457 0 z M396.48403125 40.39063 c-8.3008 0 -14.434 -5.6641 -14.434 -14.512 c0 -8.8672 6.1328 -14.492 14.434 -14.492 c8.2813 0 14.414 5.625 14.414 14.492 c0 8.8477 -6.1328 14.512 -14.414 14.512 z M396.48403125 35.0195 c4.8633 0 8.5938 -3.418 8.5938 -9.1406 c0 -5.7031 -3.7305 -9.1016 -8.5938 -9.1016 s-8.5938 3.3984 -8.5938 9.1016 c0 5.7227 3.7305 9.1406 8.5938 9.1406 z M430.586375 40.39063 c-6.1914 0 -11.035 -3.1641 -11.035 -10.273 l0 -18.34 l5.8594 0 l0 17.539 c0 4.2969 2.2852 5.8984 5.1758 5.8984 c2.9102 0 5.2148 -1.6211 5.2148 -5.8984 l0 -17.539 l5.8594 0 l0 18.34 c0 7.1094 -4.8633 10.273 -11.074 10.273 z M463.96521875 11.777000000000001 c5.5273 0 8.9648 4.1016 8.9648 9.1211 c0 5.1367 -3.4375 8.9844 -8.9648 8.9844 l-5.8789 0 l0 10.117 l-5.8594 0 l0 -28.223 l11.738 0 z M462.98821875 24.98 c2.9297 0 4.2969 -1.6211 4.2969 -4.1602 c0 -2.4414 -1.3672 -4.1406 -4.2969 -4.1406 l-4.9023 0 l0 8.3008 l4.9023 0 z"></path></g><g id="SvgjsG3077" featureKey="sloganFeature-0" transform="matrix(0.9066865942499818,0,0,0.9066865942499818,53.337777200306306,232.4537234120874)" fill="#ffffff"><path d="M8.24 8.3 l-2.48 5.14 l0 5.32 c0 0.44 -0.32 0.64 -0.64 0.64 c-0.34 0 -0.66 -0.22 -0.66 -0.64 l0 -5.32 l-2.54 -5.12 c-0.42 -0.88 0.8 -1.4 1.22 -0.56 l1.98 3.96 l1.9 -3.94 c0.44 -0.92 1.64 -0.34 1.22 0.52 z M16.6795 15.86 l0 -4.96 c0 -2.4 1.24 -3.68 3.64 -3.68 l0.52 0 c2.38 0 3.64 1.28 3.64 3.68 l0 4.96 c0 2.2 -1.46 3.64 -3.64 3.64 l-0.52 0 c-2.22 0 -3.64 -1.46 -3.64 -3.64 z M20.3195 18.16 l0.52 0 c1.44 0 2.3 -0.9 2.3 -2.3 l0 -4.96 c0 -1.56 -0.76 -2.36 -2.3 -2.36 l-0.52 0 c-1.52 0 -2.36 0.82 -2.36 2.36 l0 4.96 c0 1.46 0.92 2.3 2.36 2.3 z M33.299 15.86 l0 -7.86 c0 -0.42 0.34 -0.64 0.66 -0.64 c0.34 0 0.66 0.22 0.66 0.64 l0 7.86 c0 1.44 0.98 2.3 2.34 2.3 l0.5 0 c1.4 0 2.36 -0.98 2.36 -2.3 l0 -7.86 c0 -0.42 0.32 -0.64 0.66 -0.64 c0.32 0 0.66 0.22 0.66 0.64 l0 7.86 c0 2.06 -1.46 3.64 -3.68 3.64 l-0.5 0 c-2.22 0 -3.66 -1.54 -3.66 -3.64 z M51.45850000000001 15.9 l0 2.86 c0 0.44 -0.34 0.64 -0.66 0.64 c-0.34 0 -0.66 -0.2 -0.66 -0.64 l0 -10.74 c0 -0.4 0.22 -0.66 0.66 -0.66 l2.7 0 c0.76 0 3.16 0.22 3.16 2.92 l0 2.5 c0 1.52 -0.56 2.48 -1.84 2.9 l1.36 2.74 c0.28 0.54 -0.14 0.98 -0.58 0.98 c-0.24 0 -0.54 -0.16 -0.7 -0.5 l-1.46 -3 l-1.98 0 z M55.3385 12.780000000000001 l0 -2.5 c0 -0.48 -0.18 -1.58 -1.84 -1.58 l-2.04 0 l0 5.86 l1.86 0 c0.98 0 2.02 -0.22 2.02 -1.78 z M77.23750000000001 18.76 l0 -10.76 c0 -0.42 0.32 -0.64 0.64 -0.64 s0.66 0.22 0.66 0.64 l0 10.06 l3.98 0 c0.44 0 0.68 0.34 0.68 0.68 s-0.24 0.66 -0.68 0.66 l-4.62 0 c-0.4 0 -0.66 -0.32 -0.66 -0.64 z M91.07700000000001 15.86 l0 -4.96 c0 -2.4 1.24 -3.68 3.64 -3.68 l0.52 0 c2.38 0 3.64 1.28 3.64 3.68 l0 4.96 c0 2.2 -1.46 3.64 -3.64 3.64 l-0.52 0 c-2.22 0 -3.64 -1.46 -3.64 -3.64 z M94.71700000000001 18.16 l0.52 0 c1.44 0 2.3 -0.9 2.3 -2.3 l0 -4.96 c0 -1.56 -0.76 -2.36 -2.3 -2.36 l-0.52 0 c-1.52 0 -2.36 0.82 -2.36 2.36 l0 4.96 c0 1.46 0.92 2.3 2.36 2.3 z M111.43650000000002 7.32 c1.82 0 3.76 0.7 3.76 2.76 c0 0.48 -0.32 0.7 -0.66 0.7 s-0.7 -0.24 -0.7 -0.7 c0 -0.16 -0.1 -1.46 -2.4 -1.46 c-1.82 0 -2.62 0.72 -2.62 2.44 l0 4.82 c0 1.74 0.98 2.28 2.62 2.28 c1.66 0 2.58 -0.68 2.58 -2.3 c0 -0.46 0.34 -0.68 0.66 -0.68 c0.34 0 0.66 0.22 0.66 0.68 c0 2.7 -1.5 3.6 -3.9 3.6 c-2.6 0 -3.92 -0.96 -3.92 -3.58 l0 -4.82 c0 -2.84 1.42 -3.74 3.92 -3.74 z M130.056 18.86 l-0.78 -2.54 l-3.72 0 l-0.74 2.5 c-0.26 0.86 -1.58 0.6 -1.3 -0.28 c1.04 -3.5 2.06 -7.06 3.08 -10.6 c0.12 -0.38 0.44 -0.58 0.76 -0.58 c0.3 0 0.62 0.2 0.74 0.58 l3.18 10.6 c0.22 0.76 -0.96 1.18 -1.22 0.32 z M127.39600000000002 10.06 l-1.44 4.92 l2.94 0 c-0.5 -1.68 -0.96 -3.12 -1.5 -4.92 z M139.83550000000002 18.76 l0 -10.76 c0 -0.42 0.32 -0.64 0.64 -0.64 s0.66 0.22 0.66 0.64 l0 10.06 l3.98 0 c0.44 0 0.68 0.34 0.68 0.68 s-0.24 0.66 -0.68 0.66 l-4.62 0 c-0.4 0 -0.66 -0.32 -0.66 -0.64 z M165.43450000000004 18.76 l0 -10.76 c0 -0.42 0.32 -0.62 0.66 -0.62 s0.68 0.2 0.68 0.62 l0 4.58 l4.54 0 l0 -4.58 c0 -0.42 0.32 -0.64 0.64 -0.64 s0.66 0.22 0.66 0.64 l0 10.76 c0 0.42 -0.34 0.64 -0.66 0.64 s-0.64 -0.22 -0.64 -0.64 l0 -4.82 l-4.54 0 l0 4.82 c0 0.42 -0.34 0.64 -0.68 0.64 s-0.66 -0.22 -0.66 -0.64 z M181.79400000000004 18.7 l0 -10.64 c0 -0.46 0.36 -0.7 0.7 -0.7 l4.6 0 c0.44 0 0.66 0.32 0.66 0.66 s-0.22 0.68 -0.66 0.68 l-3.96 0 l0 3.88 l3.14 0 c0.46 0 0.68 0.32 0.68 0.66 s-0.24 0.7 -0.68 0.7 l-3.14 0 l0 4.14 l3.96 0 c0.42 0 0.64 0.34 0.64 0.66 c0 0.34 -0.22 0.66 -0.64 0.66 l-4.6 0 c-0.34 0 -0.7 -0.12 -0.7 -0.7 z M202.33350000000004 18.86 l-0.78 -2.54 l-3.72 0 l-0.74 2.5 c-0.26 0.86 -1.58 0.6 -1.3 -0.28 c1.04 -3.5 2.06 -7.06 3.08 -10.6 c0.12 -0.38 0.44 -0.58 0.76 -0.58 c0.3 0 0.62 0.2 0.74 0.58 l3.18 10.6 c0.22 0.76 -0.96 1.18 -1.22 0.32 z M199.67350000000005 10.06 l-1.44 4.92 l2.94 0 c-0.5 -1.68 -0.96 -3.12 -1.5 -4.92 z M212.11300000000003 18.76 l0 -10.76 c0 -0.42 0.32 -0.64 0.64 -0.64 s0.66 0.22 0.66 0.64 l0 10.06 l3.98 0 c0.44 0 0.68 0.34 0.68 0.68 s-0.24 0.66 -0.68 0.66 l-4.62 0 c-0.4 0 -0.66 -0.32 -0.66 -0.64 z M225.79250000000005 7.359999999999999 l6.04 0 c0.42 0 0.62 0.34 0.62 0.68 s-0.2 0.66 -0.62 0.66 l-2.28 0 l0 10.06 c0 0.42 -0.34 0.64 -0.68 0.64 s-0.66 -0.22 -0.66 -0.64 l0 -10.06 l-2.42 0 c-0.42 0 -0.62 -0.32 -0.62 -0.66 s0.2 -0.68 0.62 -0.68 z M240.77200000000005 18.76 l0 -10.76 c0 -0.42 0.32 -0.62 0.66 -0.62 s0.68 0.2 0.68 0.62 l0 4.58 l4.54 0 l0 -4.58 c0 -0.42 0.32 -0.64 0.64 -0.64 s0.66 0.22 0.66 0.64 l0 10.76 c0 0.42 -0.34 0.64 -0.66 0.64 s-0.64 -0.22 -0.64 -0.64 l0 -4.82 l-4.54 0 l0 4.82 c0 0.42 -0.34 0.64 -0.68 0.64 s-0.66 -0.22 -0.66 -0.64 z M260.8115 7.32 c1.82 0 3.76 0.7 3.76 2.76 c0 0.48 -0.32 0.7 -0.66 0.7 s-0.7 -0.24 -0.7 -0.7 c0 -0.16 -0.1 -1.46 -2.4 -1.46 c-1.82 0 -2.62 0.72 -2.62 2.44 l0 4.82 c0 1.74 0.98 2.28 2.62 2.28 c1.66 0 2.58 -0.68 2.58 -2.3 c0 -0.46 0.34 -0.68 0.66 -0.68 c0.34 0 0.66 0.22 0.66 0.68 c0 2.7 -1.5 3.6 -3.9 3.6 c-2.6 0 -3.92 -0.96 -3.92 -3.58 l0 -4.82 c0 -2.84 1.42 -3.74 3.92 -3.74 z M279.43100000000004 18.86 l-0.78 -2.54 l-3.72 0 l-0.74 2.5 c-0.26 0.86 -1.58 0.6 -1.3 -0.28 c1.04 -3.5 2.06 -7.06 3.08 -10.6 c0.12 -0.38 0.44 -0.58 0.76 -0.58 c0.3 0 0.62 0.2 0.74 0.58 l3.18 10.6 c0.22 0.76 -0.96 1.18 -1.22 0.32 z M276.7710000000001 10.06 l-1.44 4.92 l2.94 0 c-0.5 -1.68 -0.96 -3.12 -1.5 -4.92 z M290.55050000000006 15.9 l0 2.86 c0 0.44 -0.34 0.64 -0.66 0.64 c-0.34 0 -0.66 -0.2 -0.66 -0.64 l0 -10.74 c0 -0.4 0.22 -0.66 0.66 -0.66 l2.7 0 c0.76 0 3.16 0.22 3.16 2.92 l0 2.5 c0 1.52 -0.56 2.48 -1.84 2.9 l1.36 2.74 c0.28 0.54 -0.14 0.98 -0.58 0.98 c-0.24 0 -0.54 -0.16 -0.7 -0.5 l-1.46 -3 l-1.98 0 z M294.43050000000005 12.780000000000001 l0 -2.5 c0 -0.48 -0.18 -1.58 -1.84 -1.58 l-2.04 0 l0 5.86 l1.86 0 c0.98 0 2.02 -0.22 2.02 -1.78 z M304.69000000000005 18.7 l0 -10.64 c0 -0.46 0.36 -0.7 0.7 -0.7 l4.6 0 c0.44 0 0.66 0.32 0.66 0.66 s-0.22 0.68 -0.66 0.68 l-3.96 0 l0 3.88 l3.14 0 c0.46 0 0.68 0.32 0.68 0.66 s-0.24 0.7 -0.68 0.7 l-3.14 0 l0 4.14 l3.96 0 c0.42 0 0.64 0.34 0.64 0.66 c0 0.34 -0.22 0.66 -0.64 0.66 l-4.6 0 c-0.34 0 -0.7 -0.12 -0.7 -0.7 z"></path></g>
			</g>
		</svg>
